  0
SECTION
  2
ENTITIES
  0
POLYLINE
  8
patch
  5
1
 66
1
 10
0.0
 20
0.0
 30
0.0
 70
1
  0
VERTEX
  8
patch
  5
2
 10
10.9
 20
17.35
  0
VERTEX
  8
patch
  5
3
 10
10.0
 20
17.35
  0
VERTEX
  8
patch
  5
4
 10
10.0
 20
34.7
  0
VERTEX
  8
patch
  5
5
 10
14.0
 20
34.7
  0
VERTEX
  8
patch
  5
6
 10
14.0
 20
17.35
  0
VERTEX
  8
patch
  5
7
 10
13.1
 20
17.35
  0
VERTEX
  8
patch
  5
8
 10
13.1
 20
15.5
  0
VERTEX
  8
patch
  5
9
 10
12.7
 20
15.5
  0
VERTEX
  8
patch
  5
A
 10
12.7
 20
19.2
  0
VERTEX
  8
patch
  5
B
 10
13.1
 20
19.2
  0
VERTEX
  8
patch
  5
C
 10
13.1
 20
17.75
  0
VERTEX
  8
patch
  5
D
 10
13.6
 20
17.75
  0
VERTEX
  8
patch
  5
E
 10
13.6
 20
19.7
  0
VERTEX
  8
patch
  5
F
 10
12.2
 20
19.7
  0
VERTEX
  8
patch
  5
10
 10
12.2
 20
15.0
  0
VERTEX
  8
patch
  5
11
 10
13.6
 20
15.0
  0
VERTEX
  8
patch
  5
12
 10
13.6
 20
16.95
  0
VERTEX
  8
patch
  5
13
 10
14.0
 20
16.95
  0
VERTEX
  8
patch
  5
14
 10
14.0
 20
0.0
  0
VERTEX
  8
patch
  5
15
 10
10.0
 20
0.0
  0
VERTEX
  8
patch
  5
16
 10
10.0
 20
16.95
  0
VERTEX
  8
patch
  5
17
 10
10.4
 20
16.95
  0
VERTEX
  8
patch
  5
18
 10
10.4
 20
15.0
  0
VERTEX
  8
patch
  5
19
 10
11.8
 20
15.0
  0
VERTEX
  8
patch
  5
1A
 10
11.8
 20
19.7
  0
VERTEX
  8
patch
  5
1B
 10
10.4
 20
19.7
  0
VERTEX
  8
patch
  5
1C
 10
10.4
 20
17.75
  0
VERTEX
  8
patch
  5
1D
 10
10.9
 20
17.75
  0
VERTEX
  8
patch
  5
1E
 10
10.9
 20
19.2
  0
VERTEX
  8
patch
  5
1F
 10
11.3
 20
19.2
  0
VERTEX
  8
patch
  5
20
 10
11.3
 20
15.5
  0
VERTEX
  8
patch
  5
21
 10
10.9
 20
15.5
  0
SEQEND
  8
patch
  5
22
  0
POLYLINE
  8
patch
  5
23
 66
1
 10
0.0
 20
0.0
 30
0.0
 70
1
  0
VERTEX
  8
patch
  5
24
 10
24.0
 20
0.0
  0
VERTEX
  8
patch
  5
25
 10
0.0
 20
0.0
  0
VERTEX
  8
patch
  5
26
 10
0.0
 20
34.7
  0
VERTEX
  8
patch
  5
27
 10
24.0
 20
34.7
  0
SEQEND
  8
patch
  5
28
  0
POLYLINE
  8
patch
  5
29
 66
1
 10
0.0
 20
0.0
 30
0.0
 70
1
  0
VERTEX
  8
patch
  5
2A
 10
24.0
 20
0.0
  0
VERTEX
  8
patch
  5
2B
 10
0.0
 20
0.0
  0
VERTEX
  8
patch
  5
2C
 10
0.0
 20
34.7
  0
VERTEX
  8
patch
  5
2D
 10
24.0
 20
34.7
  0
SEQEND
  8
patch
  5
2E
  0
ENDSEC
  0
EOF
